<svg width="226" height="227" viewBox="0 0 226 227" fill="none" xmlns="http://www.w3.org/2000/svg">
<g clip-path="url(#clip0_759_4957)">
<path d="M167 37.5569C166.794 39.202 166.529 40.8431 166.395 42.4941C165.686 51.1106 163.22 59.3164 159.672 67.3364C155.781 76.0918 151.91 84.857 146.896 93.1704C146.744 93.4572 146.522 93.7094 146.246 93.9085C145.971 94.1075 145.65 94.2484 145.307 94.3206C137.526 96.2767 129.616 97.5149 121.536 97.824C121.073 97.8614 120.613 97.9201 120.157 98H111.916C110.231 97.8768 108.537 97.8044 106.86 97.6186C98.4749 96.6966 90.0945 95.7518 81.719 94.7842C81.4834 94.751 81.2576 94.675 81.0555 94.5606C80.8535 94.4463 80.6793 94.2961 80.5436 94.1191C73.4412 82.1987 66.9547 70.0279 62.6152 57.0258C60.8954 51.8696 59.579 46.637 59.1865 41.2441C59.1453 40.9892 59.083 40.7375 59 40.491V36.1876C60.5723 34.7616 62.1381 33.3317 63.7147 31.9116C77.7937 19.2244 93.7508 8.85912 111.389 0.586826C111.721 0.407449 112.041 0.211538 112.349 0L112.566 0C116.108 1.6079 119.742 3.07106 123.173 4.84914C133.55 10.2245 142.908 16.8732 151.917 23.9386C156.712 27.7021 161.342 31.6339 166.039 35.4952C166.378 35.7729 166.69 36.082 167 36.3832V37.5569ZM116.559 96.5153C124.479 96.6875 134.359 95.5099 144.079 93.143C144.975 92.9259 145.465 92.5132 145.888 91.8051C151.093 83.0966 154.973 73.8697 159.069 64.7191C162.942 56.0713 164.491 47.0596 165.239 37.8659C165.276 37.3848 165.096 36.7197 164.732 36.4067C154.795 27.843 144.491 19.6646 133.286 12.4583C127.07 8.46008 120.629 4.8022 113.612 2.02846C112.987 1.782 112.467 1.6881 111.79 2.00695C93.0482 10.87 76.2388 22.0764 61.6024 35.902C61.285 36.1804 61.0358 36.5157 60.8711 36.8864C60.7064 37.257 60.6297 37.6547 60.646 38.0537C60.646 44.9783 62.381 51.6251 64.6646 58.1662C68.887 70.2685 74.9419 81.653 81.5802 92.8007C81.7819 93.143 82.3957 93.4071 82.8619 93.4795C85.1022 93.8335 87.3554 94.1191 89.6065 94.4145C97.8345 95.4884 106.075 96.398 116.559 96.5153Z" fill="#23435C"/>
<path d="M116.233 73.4961C119.33 73.5294 121.696 72.0153 122.247 69.4959C122.641 67.7431 122.831 65.9579 122.813 64.1695C122.661 55.4023 122.379 46.639 122.202 37.8718C122.163 35.8023 122.635 33.7249 123.839 31.9644C125.504 29.535 128.016 28.107 131.325 27.7354C131.286 27.907 131.227 28.0743 131.147 28.2342C128.666 31.6339 128.265 35.5265 128.213 39.3995C128.087 48.7888 128.107 58.178 128.213 67.5672C128.248 70.6441 126.873 72.8682 123.919 74.1123C121.564 75.106 118.983 75.6634 116.268 76.483C116.136 79.8592 117.595 82.723 121.62 84.3211L121.43 84.5558H104.993C106.806 83.6384 108.097 82.3259 109.055 80.7238C109.781 79.5512 110.107 78.2113 109.992 76.8723C109.944 76.3089 109.775 76.1016 109.124 76.0508C106.344 75.8375 103.735 75.1294 101.456 73.6213C98.7973 71.8608 97.4397 69.5018 97.457 66.509C97.5112 57.511 97.5828 48.5129 97.5936 39.5149C97.5936 35.7338 96.9561 32.0505 94.9761 28.645C94.8763 28.4748 94.8091 28.289 94.6226 27.886C97.1838 28.5765 99.5455 29.1692 101.103 31.1272C102.872 33.3533 103.64 35.8805 103.601 38.5799C103.477 47.085 103.228 55.5979 103.182 64.0951C103.171 66.151 103.59 68.244 104.119 70.2549C104.648 72.2657 107.552 73.7445 109.998 73.4668C109.998 73.0658 109.998 72.6491 109.998 72.2325C109.931 58.2503 109.863 44.2669 109.797 30.2822C109.797 28.6547 109.816 27.0247 109.853 25.392C109.884 24.5759 109.733 23.7626 109.41 22.9997C109.087 22.2369 108.599 21.5399 107.973 20.9497C107.396 20.3805 106.906 19.7408 106.268 19.0132H119.506C116.012 21.6461 115.917 25.1318 115.941 28.6547C116.04 43.0307 116.137 57.4053 116.229 71.7787C116.236 72.3303 116.233 72.878 116.233 73.4961Z" fill="#23435C"/>
</g>
<rect x="16" y="110" width="194" height="44" rx="10" fill="#23435C"/>
<path d="M53.22 129.24C53.22 129.947 53.0533 130.613 52.72 131.24C52.3867 131.867 51.8533 132.38 51.12 132.78C50.3867 133.167 49.4467 133.36 48.3 133.36H45.78V139H43.5V125.1H48.3C49.3667 125.1 50.2667 125.287 51 125.66C51.7467 126.02 52.3 126.513 52.66 127.14C53.0333 127.767 53.22 128.467 53.22 129.24ZM48.3 131.5C49.1667 131.5 49.8133 131.307 50.24 130.92C50.6667 130.52 50.88 129.96 50.88 129.24C50.88 127.72 50.02 126.96 48.3 126.96H45.78V131.5H48.3ZM65.3745 127.98V139H63.0945V137.7C62.7345 138.153 62.2612 138.513 61.6745 138.78C61.1012 139.033 60.4879 139.16 59.8345 139.16C58.9679 139.16 58.1879 138.98 57.4945 138.62C56.8145 138.26 56.2745 137.727 55.8745 137.02C55.4879 136.313 55.2945 135.46 55.2945 134.46V127.98H57.5545V134.12C57.5545 135.107 57.8012 135.867 58.2945 136.4C58.7879 136.92 59.4612 137.18 60.3145 137.18C61.1679 137.18 61.8412 136.92 62.3345 136.4C62.8412 135.867 63.0945 135.107 63.0945 134.12V127.98H65.3745ZM71.0428 129.84V135.94C71.0428 136.353 71.1361 136.653 71.3228 136.84C71.5228 137.013 71.8561 137.1 72.3228 137.1H73.7228V139H71.9228C70.8961 139 70.1095 138.76 69.5628 138.28C69.0161 137.8 68.7428 137.02 68.7428 135.94V129.84H67.4428V127.98H68.7428V125.24H71.0428V127.98H73.7228V129.84H71.0428ZM78.1042 129.58C78.4376 129.02 78.8776 128.587 79.4242 128.28C79.9842 127.96 80.6442 127.8 81.4042 127.8V130.16H80.8242C79.9309 130.16 79.2509 130.387 78.7842 130.84C78.3309 131.293 78.1042 132.08 78.1042 133.2V139H75.8242V127.98H78.1042V129.58ZM82.74 133.44C82.74 132.333 82.9667 131.353 83.42 130.5C83.8867 129.647 84.5133 128.987 85.3 128.52C86.1 128.04 86.98 127.8 87.94 127.8C88.8067 127.8 89.56 127.973 90.2 128.32C90.8533 128.653 91.3733 129.073 91.76 129.58V127.98H94.06V139H91.76V137.36C91.3733 137.88 90.8467 138.313 90.18 138.66C89.5133 139.007 88.7533 139.18 87.9 139.18C86.9533 139.18 86.0867 138.94 85.3 138.46C84.5133 137.967 83.8867 137.287 83.42 136.42C82.9667 135.54 82.74 134.547 82.74 133.44ZM91.76 133.48C91.76 132.72 91.6 132.06 91.28 131.5C90.9733 130.94 90.5667 130.513 90.06 130.22C89.5533 129.927 89.0067 129.78 88.42 129.78C87.8333 129.78 87.2867 129.927 86.78 130.22C86.2733 130.5 85.86 130.92 85.54 131.48C85.2333 132.027 85.08 132.68 85.08 133.44C85.08 134.2 85.2333 134.867 85.54 135.44C85.86 136.013 86.2733 136.453 86.78 136.76C87.3 137.053 87.8467 137.2 88.42 137.2C89.0067 137.2 89.5533 137.053 90.06 136.76C90.5667 136.467 90.9733 136.04 91.28 135.48C91.6 134.907 91.76 134.24 91.76 133.48ZM111.23 125.1V126.96H107.53V139H105.25V126.96H101.53V125.1H111.23ZM123.519 127.98V139H121.239V137.7C120.879 138.153 120.406 138.513 119.819 138.78C119.246 139.033 118.632 139.16 117.979 139.16C117.112 139.16 116.332 138.98 115.639 138.62C114.959 138.26 114.419 137.727 114.019 137.02C113.632 136.313 113.439 135.46 113.439 134.46V127.98H115.699V134.12C115.699 135.107 115.946 135.867 116.439 136.4C116.932 136.92 117.606 137.18 118.459 137.18C119.312 137.18 119.986 136.92 120.479 136.4C120.986 135.867 121.239 135.107 121.239 134.12V127.98H123.519ZM132.087 127.8C132.954 127.8 133.727 127.98 134.407 128.34C135.101 128.7 135.641 129.233 136.027 129.94C136.414 130.647 136.607 131.5 136.607 132.5V139H134.347V132.84C134.347 131.853 134.101 131.1 133.607 130.58C133.114 130.047 132.441 129.78 131.587 129.78C130.734 129.78 130.054 130.047 129.547 130.58C129.054 131.1 128.807 131.853 128.807 132.84V139H126.527V127.98H128.807V129.24C129.181 128.787 129.654 128.433 130.227 128.18C130.814 127.927 131.434 127.8 132.087 127.8ZM143.956 127.8C144.809 127.8 145.562 127.973 146.216 128.32C146.882 128.653 147.402 129.073 147.776 129.58V127.98H150.076V139.18C150.076 140.193 149.862 141.093 149.436 141.88C149.009 142.68 148.389 143.307 147.576 143.76C146.776 144.213 145.816 144.44 144.696 144.44C143.202 144.44 141.962 144.087 140.976 143.38C139.989 142.687 139.429 141.74 139.296 140.54H141.556C141.729 141.113 142.096 141.573 142.656 141.92C143.229 142.28 143.909 142.46 144.696 142.46C145.616 142.46 146.356 142.18 146.916 141.62C147.489 141.06 147.776 140.247 147.776 139.18V137.34C147.389 137.86 146.862 138.3 146.196 138.66C145.542 139.007 144.796 139.18 143.956 139.18C142.996 139.18 142.116 138.94 141.316 138.46C140.529 137.967 139.902 137.287 139.436 136.42C138.982 135.54 138.756 134.547 138.756 133.44C138.756 132.333 138.982 131.353 139.436 130.5C139.902 129.647 140.529 128.987 141.316 128.52C142.116 128.04 142.996 127.8 143.956 127.8ZM147.776 133.48C147.776 132.72 147.616 132.06 147.296 131.5C146.989 130.94 146.582 130.513 146.076 130.22C145.569 129.927 145.022 129.78 144.436 129.78C143.849 129.78 143.302 129.927 142.796 130.22C142.289 130.5 141.876 130.92 141.556 131.48C141.249 132.027 141.096 132.68 141.096 133.44C141.096 134.2 141.249 134.867 141.556 135.44C141.876 136.013 142.289 136.453 142.796 136.76C143.316 137.053 143.862 137.2 144.436 137.2C145.022 137.2 145.569 137.053 146.076 136.76C146.582 136.467 146.989 136.04 147.296 135.48C147.616 134.907 147.776 134.24 147.776 133.48ZM157.51 127.8C158.364 127.8 159.117 127.973 159.77 128.32C160.437 128.653 160.957 129.073 161.33 129.58V127.98H163.63V139.18C163.63 140.193 163.417 141.093 162.99 141.88C162.564 142.68 161.944 143.307 161.13 143.76C160.33 144.213 159.37 144.44 158.25 144.44C156.757 144.44 155.517 144.087 154.53 143.38C153.544 142.687 152.984 141.74 152.85 140.54H155.11C155.284 141.113 155.65 141.573 156.21 141.92C156.784 142.28 157.464 142.46 158.25 142.46C159.17 142.46 159.91 142.18 160.47 141.62C161.044 141.06 161.33 140.247 161.33 139.18V137.34C160.944 137.86 160.417 138.3 159.75 138.66C159.097 139.007 158.35 139.18 157.51 139.18C156.55 139.18 155.67 138.94 154.87 138.46C154.084 137.967 153.457 137.287 152.99 136.42C152.537 135.54 152.31 134.547 152.31 133.44C152.31 132.333 152.537 131.353 152.99 130.5C153.457 129.647 154.084 128.987 154.87 128.52C155.67 128.04 156.55 127.8 157.51 127.8ZM161.33 133.48C161.33 132.72 161.17 132.06 160.85 131.5C160.544 130.94 160.137 130.513 159.63 130.22C159.124 129.927 158.577 129.78 157.99 129.78C157.404 129.78 156.857 129.927 156.35 130.22C155.844 130.5 155.43 130.92 155.11 131.48C154.804 132.027 154.65 132.68 154.65 133.44C154.65 134.2 154.804 134.867 155.11 135.44C155.43 136.013 155.844 136.453 156.35 136.76C156.87 137.053 157.417 137.2 157.99 137.2C158.577 137.2 159.124 137.053 159.63 136.76C160.137 136.467 160.544 136.04 160.85 135.48C161.17 134.907 161.33 134.24 161.33 133.48ZM165.865 133.44C165.865 132.333 166.092 131.353 166.545 130.5C167.012 129.647 167.638 128.987 168.425 128.52C169.225 128.04 170.105 127.8 171.065 127.8C171.932 127.8 172.685 127.973 173.325 128.32C173.978 128.653 174.498 129.073 174.885 129.58V127.98H177.185V139H174.885V137.36C174.498 137.88 173.972 138.313 173.305 138.66C172.638 139.007 171.878 139.18 171.025 139.18C170.078 139.18 169.212 138.94 168.425 138.46C167.638 137.967 167.012 137.287 166.545 136.42C166.092 135.54 165.865 134.547 165.865 133.44ZM174.885 133.48C174.885 132.72 174.725 132.06 174.405 131.5C174.098 130.94 173.692 130.513 173.185 130.22C172.678 129.927 172.132 129.78 171.545 129.78C170.958 129.78 170.412 129.927 169.905 130.22C169.398 130.5 168.985 130.92 168.665 131.48C168.358 132.027 168.205 132.68 168.205 133.44C168.205 134.2 168.358 134.867 168.665 135.44C168.985 136.013 169.398 136.453 169.905 136.76C170.425 137.053 170.972 137.2 171.545 137.2C172.132 137.2 172.678 137.053 173.185 136.76C173.692 136.467 174.098 136.04 174.405 135.48C174.725 134.907 174.885 134.24 174.885 133.48ZM182.46 124.2V139H180.18V124.2H182.46Z" fill="white"/>
<defs>
<clipPath id="clip0_759_4957">
<rect width="108" height="98" fill="white" transform="translate(59)"/>
</clipPath>
</defs>
</svg>
